# xmcd CD database file
#
# Track frame offsets:
#	150
#	13403
#	33385
#
# Disc length: 602 seconds
#
# Revision: 0
# Processed by: cddbd v1.5.2PL0 Copyright (c) Steve Scherf et al.
# Submitted via: CDex 1.51
#
DISCID=1f025803
DTITLE=Seth McFarlane - Selections From Music Is Better Than Words
DYEAR=2017
DGENRE=Jazz
TTITLE0=It's Anybody's Spring
TTITLE1=Two Sleepy People with Norah Jones
TTITLE2=The Night They Invented Champagne
EXTD=YEAR: 2017
EXTT0=
EXTT1=
EXTT2=
PLAYORDER=
